<mxfile host="app.diagrams.net" modified="2021-11-21T00:55:14.325Z" agent="5.0 (Windows NT 10.0; Win64; x64) AppleWebKit/537.36 (KHTML, like Gecko) Chrome/96.0.4664.45 Safari/537.36" etag="JLPgT_WHwxyOekifNJ8G" version="15.8.3" type="github">
  <diagram id="v_hs-f6NGaezQ8ny2Qsy" name="Page-1">
    <mxGraphModel dx="1038" dy="579" grid="1" gridSize="10" guides="1" tooltips="1" connect="1" arrows="1" fold="1" page="1" pageScale="1" pageWidth="827" pageHeight="1169" math="0" shadow="0">
      <root>
        <mxCell id="0" />
        <mxCell id="1" parent="0" />
        <mxCell id="h_wTxN5DXtM655nAa7fS-1" value="EMPIEZA EL PROGRAMA" style="rounded=1;whiteSpace=wrap;html=1;fillColor=#fff2cc;gradientColor=#ffd966;strokeColor=#d6b656;" vertex="1" parent="1">
          <mxGeometry x="50" y="140" width="120" height="60" as="geometry" />
        </mxCell>
        <mxCell id="h_wTxN5DXtM655nAa7fS-2" value="" style="endArrow=classic;html=1;rounded=0;" edge="1" parent="1" target="h_wTxN5DXtM655nAa7fS-3">
          <mxGeometry width="50" height="50" relative="1" as="geometry">
            <mxPoint x="170" y="170" as="sourcePoint" />
            <mxPoint x="240" y="170" as="targetPoint" />
          </mxGeometry>
        </mxCell>
        <mxCell id="h_wTxN5DXtM655nAa7fS-3" value="SE CREA LA &lt;br&gt;BARAJA" style="ellipse;whiteSpace=wrap;html=1;fillColor=#dae8fc;strokeColor=#6c8ebf;" vertex="1" parent="1">
          <mxGeometry x="220" y="130" width="100" height="80" as="geometry" />
        </mxCell>
        <mxCell id="h_wTxN5DXtM655nAa7fS-4" value="" style="endArrow=classic;html=1;rounded=0;" edge="1" parent="1" target="h_wTxN5DXtM655nAa7fS-5">
          <mxGeometry width="50" height="50" relative="1" as="geometry">
            <mxPoint x="320" y="170" as="sourcePoint" />
            <mxPoint x="380" y="170" as="targetPoint" />
          </mxGeometry>
        </mxCell>
        <mxCell id="h_wTxN5DXtM655nAa7fS-5" value="SE BARAJEA LA BARAJA" style="ellipse;whiteSpace=wrap;html=1;fillColor=#dae8fc;strokeColor=#6c8ebf;" vertex="1" parent="1">
          <mxGeometry x="370" y="130" width="100" height="80" as="geometry" />
        </mxCell>
        <mxCell id="h_wTxN5DXtM655nAa7fS-6" value="" style="endArrow=classic;html=1;rounded=0;" edge="1" parent="1" target="h_wTxN5DXtM655nAa7fS-7">
          <mxGeometry width="50" height="50" relative="1" as="geometry">
            <mxPoint x="470" y="170" as="sourcePoint" />
            <mxPoint x="530" y="170" as="targetPoint" />
          </mxGeometry>
        </mxCell>
        <mxCell id="h_wTxN5DXtM655nAa7fS-7" value="EL JUGADOR RECIBE DOS CARTAS Y SE&amp;nbsp; SUMAN SUS VALORES (PJ)" style="shape=hexagon;perimeter=hexagonPerimeter2;whiteSpace=wrap;html=1;fixedSize=1;fillColor=#d5e8d4;strokeColor=#82b366;" vertex="1" parent="1">
          <mxGeometry x="520" y="120" width="150" height="100" as="geometry" />
        </mxCell>
        <mxCell id="h_wTxN5DXtM655nAa7fS-8" value="" style="endArrow=classic;html=1;rounded=0;" edge="1" parent="1" target="h_wTxN5DXtM655nAa7fS-9">
          <mxGeometry width="50" height="50" relative="1" as="geometry">
            <mxPoint x="670" y="170" as="sourcePoint" />
            <mxPoint x="670" y="170" as="targetPoint" />
          </mxGeometry>
        </mxCell>
        <mxCell id="h_wTxN5DXtM655nAa7fS-9" value="&amp;nbsp;LA BANCA RECIBE DOS CARTAS Y SE SUMAN SUS VALORES (PB)" style="shape=hexagon;perimeter=hexagonPerimeter2;whiteSpace=wrap;html=1;fixedSize=1;fillColor=#d5e8d4;strokeColor=#82b366;" vertex="1" parent="1">
          <mxGeometry x="720" y="120" width="160" height="100" as="geometry" />
        </mxCell>
        <mxCell id="h_wTxN5DXtM655nAa7fS-13" value="" style="endArrow=classic;html=1;rounded=0;entryX=0.5;entryY=0;entryDx=0;entryDy=0;" edge="1" parent="1" target="h_wTxN5DXtM655nAa7fS-15">
          <mxGeometry width="50" height="50" relative="1" as="geometry">
            <mxPoint x="799.5" y="360" as="sourcePoint" />
            <mxPoint x="799.5" y="420" as="targetPoint" />
          </mxGeometry>
        </mxCell>
        <mxCell id="h_wTxN5DXtM655nAa7fS-14" value="SI" style="text;html=1;align=center;verticalAlign=middle;resizable=0;points=[];autosize=1;strokeColor=none;fillColor=none;" vertex="1" parent="1">
          <mxGeometry x="810" y="390" width="30" height="20" as="geometry" />
        </mxCell>
        <mxCell id="h_wTxN5DXtM655nAa7fS-15" value="LA PARTIDA HA ACABADO EN EMPATE" style="ellipse;whiteSpace=wrap;html=1;aspect=fixed;fillColor=#ffff88;strokeColor=#36393d;" vertex="1" parent="1">
          <mxGeometry x="745" y="430" width="110" height="110" as="geometry" />
        </mxCell>
        <mxCell id="h_wTxN5DXtM655nAa7fS-16" value="" style="endArrow=classic;html=1;rounded=0;" edge="1" parent="1">
          <mxGeometry width="50" height="50" relative="1" as="geometry">
            <mxPoint x="760" y="319.5" as="sourcePoint" />
            <mxPoint x="690" y="319.5" as="targetPoint" />
          </mxGeometry>
        </mxCell>
        <mxCell id="h_wTxN5DXtM655nAa7fS-18" value="" style="endArrow=classic;html=1;rounded=0;entryX=0.5;entryY=0;entryDx=0;entryDy=0;" edge="1" parent="1" target="h_wTxN5DXtM655nAa7fS-20">
          <mxGeometry width="50" height="50" relative="1" as="geometry">
            <mxPoint x="639.5" y="370" as="sourcePoint" />
            <mxPoint x="639.5" y="430" as="targetPoint" />
          </mxGeometry>
        </mxCell>
        <mxCell id="h_wTxN5DXtM655nAa7fS-19" value="SI" style="text;html=1;align=center;verticalAlign=middle;resizable=0;points=[];autosize=1;strokeColor=none;fillColor=none;" vertex="1" parent="1">
          <mxGeometry x="650" y="390" width="30" height="20" as="geometry" />
        </mxCell>
        <mxCell id="h_wTxN5DXtM655nAa7fS-20" value="¡ENHORABUENA, HAS GANADO LA PARTIDA!" style="ellipse;whiteSpace=wrap;html=1;aspect=fixed;fillColor=#ffff88;strokeColor=#36393d;" vertex="1" parent="1">
          <mxGeometry x="585" y="430" width="110" height="110" as="geometry" />
        </mxCell>
        <mxCell id="h_wTxN5DXtM655nAa7fS-21" value="NO" style="text;html=1;align=center;verticalAlign=middle;resizable=0;points=[];autosize=1;strokeColor=none;fillColor=none;" vertex="1" parent="1">
          <mxGeometry x="710" y="290" width="30" height="20" as="geometry" />
        </mxCell>
        <mxCell id="h_wTxN5DXtM655nAa7fS-22" value="" style="endArrow=classic;html=1;rounded=0;" edge="1" parent="1">
          <mxGeometry width="50" height="50" relative="1" as="geometry">
            <mxPoint x="610" y="319.5" as="sourcePoint" />
            <mxPoint x="530" y="320" as="targetPoint" />
          </mxGeometry>
        </mxCell>
        <mxCell id="h_wTxN5DXtM655nAa7fS-23" value="NO" style="text;html=1;align=center;verticalAlign=middle;resizable=0;points=[];autosize=1;strokeColor=none;fillColor=none;" vertex="1" parent="1">
          <mxGeometry x="560" y="290" width="30" height="20" as="geometry" />
        </mxCell>
        <mxCell id="h_wTxN5DXtM655nAa7fS-24" value="PJ&amp;lt;PB" style="rhombus;whiteSpace=wrap;html=1;fillColor=#76608a;fontColor=#ffffff;strokeColor=#432D57;" vertex="1" parent="1">
          <mxGeometry x="430" y="270" width="100" height="100" as="geometry" />
        </mxCell>
        <mxCell id="h_wTxN5DXtM655nAa7fS-25" value="¿PJ=PB?" style="rhombus;whiteSpace=wrap;html=1;fillColor=#76608a;fontColor=#ffffff;strokeColor=#432D57;" vertex="1" parent="1">
          <mxGeometry x="750" y="270" width="100" height="100" as="geometry" />
        </mxCell>
        <mxCell id="h_wTxN5DXtM655nAa7fS-26" value="¿PJ&amp;gt;PB?" style="rhombus;whiteSpace=wrap;html=1;fillColor=#76608a;fontColor=#ffffff;strokeColor=#432D57;" vertex="1" parent="1">
          <mxGeometry x="590" y="270" width="100" height="100" as="geometry" />
        </mxCell>
        <mxCell id="h_wTxN5DXtM655nAa7fS-28" value="" style="endArrow=classic;html=1;rounded=0;" edge="1" parent="1">
          <mxGeometry width="50" height="50" relative="1" as="geometry">
            <mxPoint x="800" y="220" as="sourcePoint" />
            <mxPoint x="800" y="270" as="targetPoint" />
          </mxGeometry>
        </mxCell>
        <mxCell id="h_wTxN5DXtM655nAa7fS-32" value="" style="endArrow=classic;html=1;rounded=0;" edge="1" parent="1">
          <mxGeometry width="50" height="50" relative="1" as="geometry">
            <mxPoint x="479.5" y="370" as="sourcePoint" />
            <mxPoint x="480" y="430" as="targetPoint" />
          </mxGeometry>
        </mxCell>
        <mxCell id="h_wTxN5DXtM655nAa7fS-33" value="LO SIENTO, LA BANCA TE HA GANADO LA PARTIDA" style="ellipse;whiteSpace=wrap;html=1;aspect=fixed;fillColor=#ffff88;strokeColor=#36393d;" vertex="1" parent="1">
          <mxGeometry x="425" y="430" width="110" height="110" as="geometry" />
        </mxCell>
      </root>
    </mxGraphModel>
  </diagram>
</mxfile>
